G04 DipTrace 3.2.0.1*
G04 BottomSilk.gbr*
%MOMM*%
G04 #@! TF.FileFunction,Legend,Bot*
G04 #@! TF.Part,Single*
%ADD96C,0.15*%
%ADD97C,0.15686*%
%FSLAX35Y35*%
G04*
G71*
G90*
G75*
G01*
G04 BotSilk*
%LPD*%
X-1639114Y3050218D2*
D96*
X-1648773Y3055048D1*
X-1658543Y3064818D1*
X-1663373Y3074477D1*
Y3093906D1*
X-1658543Y3103677D1*
X-1648773Y3113335D1*
X-1639114Y3118277D1*
X-1624514Y3123106D1*
X-1600143D1*
X-1585656Y3118277D1*
X-1575885Y3113335D1*
X-1566227Y3103677D1*
X-1561285Y3093906D1*
Y3074477D1*
X-1566227Y3064818D1*
X-1575885Y3055048D1*
X-1585656Y3050218D1*
X-1643831Y3020219D2*
X-1648773Y3010448D1*
X-1663261Y2995848D1*
X-1561285D1*
X-1598808Y3276151D2*
X-1593979Y3285809D1*
X-1584208Y3295580D1*
X-1574549Y3300409D1*
X-1555120D1*
X-1545349Y3295580D1*
X-1535691Y3285809D1*
X-1530749Y3276151D1*
X-1525920Y3261551D1*
Y3237180D1*
X-1530749Y3222693D1*
X-1535691Y3212922D1*
X-1545349Y3203263D1*
X-1555120Y3198322D1*
X-1574549D1*
X-1584208Y3203263D1*
X-1593979Y3212922D1*
X-1598808Y3222693D1*
X-1633749Y3276039D2*
Y3280868D1*
X-1638579Y3290639D1*
X-1643408Y3295468D1*
X-1653179Y3300297D1*
X-1672608D1*
X-1682266Y3295468D1*
X-1687096Y3290639D1*
X-1692037Y3280868D1*
Y3271209D1*
X-1687096Y3261439D1*
X-1677437Y3246951D1*
X-1628808Y3198322D1*
X-1696866D1*
X-938465Y3214954D2*
X-933635Y3224613D1*
X-923865Y3234384D1*
X-914206Y3239213D1*
X-894777D1*
X-885006Y3234384D1*
X-875348Y3224613D1*
X-870406Y3214954D1*
X-865577Y3200354D1*
Y3175984D1*
X-870406Y3161496D1*
X-875348Y3151725D1*
X-885006Y3142067D1*
X-894777Y3137125D1*
X-914206D1*
X-923865Y3142067D1*
X-933635Y3151725D1*
X-938465Y3161496D1*
X-978235Y3239101D2*
X-1031582D1*
X-1002494Y3200242D1*
X-1017094D1*
X-1026752Y3195413D1*
X-1031582Y3190584D1*
X-1036523Y3175984D1*
Y3166325D1*
X-1031582Y3151725D1*
X-1021923Y3141954D1*
X-1007323Y3137125D1*
X-992723D1*
X-978235Y3141954D1*
X-973406Y3146896D1*
X-968465Y3156554D1*
X-834021Y2086884D2*
X-843679Y2091713D1*
X-853450Y2101484D1*
X-858279Y2111142D1*
Y2130571D1*
X-853450Y2140342D1*
X-843679Y2150000D1*
X-834021Y2154942D1*
X-819421Y2159771D1*
X-795050D1*
X-780562Y2154942D1*
X-770792Y2150000D1*
X-761133Y2140342D1*
X-756192Y2130571D1*
Y2111142D1*
X-761133Y2101483D1*
X-770792Y2091713D1*
X-780562Y2086883D1*
X-756192Y2008254D2*
X-858167D1*
X-790221Y2056883D1*
Y1983996D1*
X-97851Y2773224D2*
X-93022Y2782883D1*
X-83251Y2792654D1*
X-73593Y2797483D1*
X-54164D1*
X-44393Y2792654D1*
X-34734Y2782883D1*
X-29793Y2773224D1*
X-24964Y2758624D1*
Y2734254D1*
X-29793Y2719766D1*
X-34734Y2709995D1*
X-44393Y2700337D1*
X-54164Y2695395D1*
X-73593D1*
X-83251Y2700337D1*
X-93022Y2709995D1*
X-97851Y2719766D1*
X-186139Y2797371D2*
X-137622D1*
X-132793Y2753683D1*
X-137622Y2758512D1*
X-152222Y2763454D1*
X-166710D1*
X-181310Y2758512D1*
X-191081Y2748854D1*
X-195910Y2734254D1*
Y2724595D1*
X-191081Y2709995D1*
X-181310Y2700224D1*
X-166710Y2695395D1*
X-152222D1*
X-137622Y2700224D1*
X-132793Y2705166D1*
X-127851Y2714824D1*
X-366721Y2082331D2*
X-376379Y2087161D1*
X-386150Y2096931D1*
X-390979Y2106590D1*
Y2126019D1*
X-386150Y2135790D1*
X-376379Y2145448D1*
X-366721Y2150390D1*
X-352121Y2155219D1*
X-327750D1*
X-313262Y2150390D1*
X-303492Y2145448D1*
X-293833Y2135790D1*
X-288892Y2126019D1*
Y2106590D1*
X-293833Y2096931D1*
X-303492Y2087161D1*
X-313262Y2082331D1*
X-376379Y1994044D2*
X-386038Y1998873D1*
X-390867Y2013473D1*
Y2023132D1*
X-386038Y2037732D1*
X-371438Y2047502D1*
X-347179Y2052332D1*
X-322921Y2052331D1*
X-303492Y2047502D1*
X-293721Y2037731D1*
X-288892Y2023131D1*
Y2018302D1*
X-293721Y2003815D1*
X-303492Y1994044D1*
X-318092Y1989215D1*
X-322921D1*
X-337521Y1994044D1*
X-347179Y2003815D1*
X-352009Y2018302D1*
Y2023132D1*
X-347179Y2037732D1*
X-337521Y2047502D1*
X-322921Y2052331D1*
X-674971Y2095399D2*
X-684629Y2100228D1*
X-694400Y2109999D1*
X-699229Y2119657D1*
Y2139087D1*
X-694400Y2148857D1*
X-684629Y2158516D1*
X-674971Y2163457D1*
X-660371Y2168286D1*
X-636000D1*
X-621512Y2163457D1*
X-611742Y2158516D1*
X-602083Y2148857D1*
X-597142Y2139086D1*
Y2119657D1*
X-602083Y2109999D1*
X-611742Y2100228D1*
X-621512Y2095399D1*
X-597142Y2045970D2*
X-699117Y1997341D1*
Y2065399D1*
X-98678Y3003429D2*
X-108336Y3008259D1*
X-118107Y3018029D1*
X-122936Y3027688D1*
Y3047117D1*
X-118107Y3056888D1*
X-108336Y3066546D1*
X-98678Y3071488D1*
X-84078Y3076317D1*
X-59707D1*
X-45219Y3071488D1*
X-35448Y3066546D1*
X-25790Y3056888D1*
X-20848Y3047117D1*
Y3027688D1*
X-25790Y3018029D1*
X-35448Y3008259D1*
X-45219Y3003429D1*
X-122824Y2949171D2*
X-117994Y2963659D1*
X-108336Y2968600D1*
X-98565D1*
X-88907Y2963659D1*
X-83965Y2954000D1*
X-79136Y2934571D1*
X-74307Y2919971D1*
X-64536Y2910313D1*
X-54878Y2905483D1*
X-40278D1*
X-30619Y2910313D1*
X-25678Y2915142D1*
X-20848Y2929742D1*
Y2949171D1*
X-25678Y2963659D1*
X-30619Y2968600D1*
X-40278Y2973429D1*
X-54878D1*
X-64536Y2968600D1*
X-74307Y2958829D1*
X-79136Y2944342D1*
X-83965Y2924913D1*
X-88907Y2915142D1*
X-98565Y2910313D1*
X-108336D1*
X-117995Y2915142D1*
X-122824Y2929742D1*
Y2949171D1*
X-1367794Y2628371D2*
X-1377453Y2633200D1*
X-1387223Y2642971D1*
X-1392053Y2652629D1*
Y2672059D1*
X-1387223Y2681829D1*
X-1377453Y2691488D1*
X-1367794Y2696429D1*
X-1353194Y2701259D1*
X-1328823D1*
X-1314336Y2696429D1*
X-1304565Y2691488D1*
X-1294907Y2681829D1*
X-1289965Y2672058D1*
Y2652629D1*
X-1294907Y2642971D1*
X-1304565Y2633200D1*
X-1314336Y2628371D1*
X-1358024Y2535142D2*
X-1343424Y2540083D1*
X-1333653Y2549742D1*
X-1328823Y2564342D1*
Y2569171D1*
X-1333653Y2583771D1*
X-1343423Y2593429D1*
X-1358023Y2598371D1*
X-1362853D1*
X-1377453Y2593430D1*
X-1387111Y2583771D1*
X-1391940Y2569171D1*
Y2564342D1*
X-1387111Y2549742D1*
X-1377453Y2540083D1*
X-1358024Y2535142D1*
X-1333653D1*
X-1309394Y2540083D1*
X-1294794Y2549742D1*
X-1289965Y2564342D1*
Y2574000D1*
X-1294794Y2588600D1*
X-1304565Y2593429D1*
X-1356911Y2904781D2*
X-1366569Y2909610D1*
X-1376340Y2919381D1*
X-1381169Y2929039D1*
Y2948469D1*
X-1376340Y2958239D1*
X-1366569Y2967898D1*
X-1356911Y2972839D1*
X-1342311Y2977669D1*
X-1317940Y2977668D1*
X-1303452Y2972839D1*
X-1293682Y2967898D1*
X-1284023Y2958239D1*
X-1279082Y2948468D1*
Y2929039D1*
X-1284023Y2919381D1*
X-1293682Y2909610D1*
X-1303452Y2904781D1*
X-1361628Y2874781D2*
X-1366569Y2865010D1*
X-1381057Y2850410D1*
X-1279082D1*
X-1381057Y2791210D2*
X-1376228Y2805810D1*
X-1361628Y2815581D1*
X-1337369Y2820410D1*
X-1322769D1*
X-1298511Y2815581D1*
X-1283911Y2805810D1*
X-1279082Y2791210D1*
Y2781552D1*
X-1283911Y2766952D1*
X-1298511Y2757293D1*
X-1322769Y2752352D1*
X-1337369D1*
X-1361628Y2757293D1*
X-1376228Y2766952D1*
X-1381057Y2781552D1*
Y2791210D1*
X-1361628Y2757293D2*
X-1298511Y2815581D1*
X-2740430Y2994901D2*
X-2735601Y3004559D1*
X-2725830Y3014330D1*
X-2716171Y3019159D1*
X-2696742D1*
X-2686971Y3014330D1*
X-2677313Y3004559D1*
X-2672371Y2994901D1*
X-2667542Y2980301D1*
Y2955930D1*
X-2672371Y2941443D1*
X-2677313Y2931672D1*
X-2686971Y2922013D1*
X-2696742Y2917072D1*
X-2716171D1*
X-2725830Y2922013D1*
X-2735601Y2931672D1*
X-2740430Y2941443D1*
X-2770430Y2999618D2*
X-2780201Y3004559D1*
X-2794801Y3019047D1*
Y2917072D1*
X-2824801Y2999618D2*
X-2834571Y3004559D1*
X-2849171Y3019047D1*
Y2917072D1*
X-2063474Y4428328D2*
X-2073133Y4433157D1*
X-2082903Y4442928D1*
X-2087733Y4452586D1*
Y4472015D1*
X-2082903Y4481786D1*
X-2073133Y4491444D1*
X-2063474Y4496386D1*
X-2048874Y4501215D1*
X-2024503D1*
X-2010016Y4496386D1*
X-2000245Y4491444D1*
X-1990587Y4481786D1*
X-1985645Y4472015D1*
Y4452586D1*
X-1990587Y4442927D1*
X-2000245Y4433157D1*
X-2010016Y4428327D1*
X-2068191Y4398328D2*
X-2073133Y4388557D1*
X-2087620Y4373957D1*
X-1985645D1*
X-2063362Y4339015D2*
X-2068191D1*
X-2077962Y4334186D1*
X-2082791Y4329357D1*
X-2087620Y4319586D1*
Y4300157D1*
X-2082791Y4290499D1*
X-2077962Y4285669D1*
X-2068191Y4280728D1*
X-2058533D1*
X-2048762Y4285669D1*
X-2034274Y4295328D1*
X-1985645Y4343957D1*
Y4275899D1*
X-2844318Y1846991D2*
X-2853976Y1851820D1*
X-2863747Y1861591D1*
X-2868576Y1871249D1*
Y1890679D1*
X-2863747Y1900449D1*
X-2853976Y1910108D1*
X-2844318Y1915049D1*
X-2829718Y1919879D1*
X-2805347Y1919878D1*
X-2790859Y1915049D1*
X-2781088Y1910108D1*
X-2771430Y1900449D1*
X-2766488Y1890678D1*
Y1871249D1*
X-2771430Y1861591D1*
X-2781088Y1851820D1*
X-2790859Y1846991D1*
X-2849034Y1816991D2*
X-2853976Y1807220D1*
X-2868464Y1792620D1*
X-2766488D1*
X-2868464Y1752850D2*
Y1699503D1*
X-2829605Y1728591D1*
Y1713991D1*
X-2824776Y1704333D1*
X-2819947Y1699503D1*
X-2805347Y1694562D1*
X-2795688D1*
X-2781088Y1699503D1*
X-2771318Y1709162D1*
X-2766488Y1723762D1*
Y1738362D1*
X-2771318Y1752849D1*
X-2776259Y1757679D1*
X-2785918Y1762620D1*
X-1820075Y2753007D2*
X-1863763D1*
X-1878363Y2757948D1*
X-1883305Y2762778D1*
X-1888134Y2772436D1*
Y2782207D1*
X-1883305Y2791865D1*
X-1878363Y2796807D1*
X-1863763Y2801636D1*
X-1820075D1*
Y2699548D1*
X-1854105Y2753007D2*
X-1888134Y2699548D1*
X-1918134Y2782095D2*
X-1927905Y2787036D1*
X-1942505Y2801524D1*
Y2699548D1*
X-904900Y3775159D2*
Y3731471D1*
X-909842Y3716871D1*
X-914671Y3711929D1*
X-924329Y3707100D1*
X-934100D1*
X-943759Y3711929D1*
X-948700Y3716871D1*
X-953529Y3731471D1*
Y3775159D1*
X-851442Y3775158D1*
X-904900Y3741129D2*
X-851442Y3707100D1*
X-929159Y3672159D2*
X-933988D1*
X-943759Y3667330D1*
X-948588Y3662500D1*
X-953417Y3652730D1*
Y3633300D1*
X-948588Y3623642D1*
X-943759Y3618813D1*
X-933988Y3613871D1*
X-924329D1*
X-914559Y3618813D1*
X-900071Y3628471D1*
X-851442Y3677100D1*
Y3609042D1*
X-1080470Y3745615D2*
Y3701928D1*
X-1085412Y3687328D1*
X-1090241Y3682386D1*
X-1099899Y3677557D1*
X-1109670D1*
X-1119329Y3682386D1*
X-1124270Y3687328D1*
X-1129099Y3701928D1*
Y3745615D1*
X-1027012D1*
X-1080470Y3711586D2*
X-1027012Y3677557D1*
X-1128987Y3637786D2*
Y3584440D1*
X-1090129Y3613528D1*
Y3598928D1*
X-1085299Y3589269D1*
X-1080470Y3584440D1*
X-1065870Y3579499D1*
X-1056212D1*
X-1041612Y3584440D1*
X-1031841Y3594099D1*
X-1027012Y3608698D1*
Y3623298D1*
X-1031841Y3637786D1*
X-1036782Y3642615D1*
X-1046441Y3647557D1*
X470696Y3054454D2*
X427009D1*
X412409Y3059395D1*
X407467Y3064224D1*
X402638Y3073883D1*
Y3083654D1*
X407467Y3093312D1*
X412409Y3098254D1*
X427009Y3103083D1*
X470696D1*
Y3000995D1*
X436667Y3054454D2*
X402638Y3000995D1*
X324009D2*
Y3102971D1*
X372638Y3035024D1*
X299750D1*
X729672Y3316144D2*
X685984D1*
X671384Y3321085D1*
X666443Y3325914D1*
X661613Y3335573D1*
Y3345344D1*
X666443Y3355002D1*
X671384Y3359944D1*
X685984Y3364773D1*
X729672D1*
Y3262685D1*
X695643Y3316144D2*
X661613Y3262685D1*
X573326Y3364661D2*
X621843D1*
X626672Y3320973D1*
X621843Y3325802D1*
X607243Y3330744D1*
X592755D1*
X578155Y3325802D1*
X568384Y3316144D1*
X563555Y3301544D1*
Y3291885D1*
X568384Y3277285D1*
X578155Y3267514D1*
X592755Y3262685D1*
X607243D1*
X621843Y3267514D1*
X626672Y3272456D1*
X631613Y3282114D1*
X-17982Y836154D2*
X-61670D1*
X-76270Y841095D1*
X-81212Y845924D1*
X-86041Y855583D1*
Y865354D1*
X-81212Y875012D1*
X-76270Y879954D1*
X-61670Y884783D1*
X-17982D1*
Y782695D1*
X-52012Y836154D2*
X-86041Y782695D1*
X-174328Y870183D2*
X-169499Y879841D1*
X-154899Y884671D1*
X-145241D1*
X-130641Y879841D1*
X-120870Y865241D1*
X-116041Y840983D1*
Y816724D1*
X-120870Y797295D1*
X-130641Y787524D1*
X-145241Y782695D1*
X-150070D1*
X-164558Y787524D1*
X-174328Y797295D1*
X-179158Y811895D1*
Y816724D1*
X-174328Y831324D1*
X-164558Y840983D1*
X-150070Y845812D1*
X-145241D1*
X-130641Y840983D1*
X-120870Y831324D1*
X-116041Y816724D1*
X-1921748Y3487557D2*
X-1965436D1*
X-1980036Y3492498D1*
X-1984977Y3497328D1*
X-1989807Y3506986D1*
Y3516757D1*
X-1984977Y3526415D1*
X-1980036Y3531357D1*
X-1965436Y3536186D1*
X-1921748D1*
Y3434098D1*
X-1955777Y3487557D2*
X-1989807Y3434098D1*
X-2039236D2*
X-2087865Y3536074D1*
X-2019807D1*
X-2305881Y3482114D2*
X-2349569D1*
X-2364169Y3487055D1*
X-2369110Y3491884D1*
X-2373939Y3501543D1*
Y3511314D1*
X-2369110Y3520972D1*
X-2364169Y3525914D1*
X-2349569Y3530743D1*
X-2305881D1*
Y3428655D1*
X-2339910Y3482114D2*
X-2373939Y3428655D1*
X-2428198Y3530631D2*
X-2413710Y3525801D1*
X-2408769Y3516143D1*
Y3506372D1*
X-2413710Y3496714D1*
X-2423369Y3491772D1*
X-2442798Y3486943D1*
X-2457398Y3482114D1*
X-2467056Y3472343D1*
X-2471886Y3462684D1*
Y3448084D1*
X-2467056Y3438426D1*
X-2462227Y3433484D1*
X-2447627Y3428655D1*
X-2428198D1*
X-2413710Y3433484D1*
X-2408769Y3438426D1*
X-2403939Y3448084D1*
Y3462684D1*
X-2408769Y3472343D1*
X-2418539Y3482114D1*
X-2433027Y3486943D1*
X-2452456Y3491772D1*
X-2462227Y3496714D1*
X-2467056Y3506372D1*
Y3516143D1*
X-2462227Y3525801D1*
X-2447627Y3530631D1*
X-2428198D1*
X-2693469Y3489977D2*
X-2737157D1*
X-2751757Y3494918D1*
X-2756699Y3499748D1*
X-2761528Y3509406D1*
Y3519177D1*
X-2756699Y3528835D1*
X-2751757Y3533777D1*
X-2737157Y3538606D1*
X-2693469D1*
Y3436518D1*
X-2727499Y3489977D2*
X-2761528Y3436518D1*
X-2854757Y3504577D2*
X-2849816Y3489977D1*
X-2840157Y3480206D1*
X-2825557Y3475377D1*
X-2820728D1*
X-2806128Y3480206D1*
X-2796469Y3489977D1*
X-2791528Y3504577D1*
Y3509406D1*
X-2796469Y3524006D1*
X-2806128Y3533665D1*
X-2820728Y3538494D1*
X-2825557D1*
X-2840157Y3533665D1*
X-2849816Y3524006D1*
X-2854757Y3504577D1*
Y3480206D1*
X-2849816Y3455948D1*
X-2840157Y3441348D1*
X-2825557Y3436518D1*
X-2815899D1*
X-2801299Y3441348D1*
X-2796469Y3451118D1*
X-3046079Y3487557D2*
X-3089767D1*
X-3104367Y3492498D1*
X-3109309Y3497328D1*
X-3114138Y3506986D1*
Y3516757D1*
X-3109309Y3526415D1*
X-3104367Y3531357D1*
X-3089767Y3536186D1*
X-3046079D1*
Y3434098D1*
X-3080109Y3487557D2*
X-3114138Y3434098D1*
X-3144138Y3516645D2*
X-3153909Y3521586D1*
X-3168509Y3536074D1*
Y3434098D1*
X-3227709Y3536074D2*
X-3213109Y3531245D1*
X-3203338Y3516645D1*
X-3198509Y3492386D1*
Y3477786D1*
X-3203338Y3453528D1*
X-3213109Y3438928D1*
X-3227709Y3434098D1*
X-3237367D1*
X-3251967Y3438928D1*
X-3261626Y3453528D1*
X-3266567Y3477786D1*
Y3492386D1*
X-3261626Y3516645D1*
X-3251967Y3531245D1*
X-3237367Y3536074D1*
X-3227709D1*
X-3261626Y3516645D2*
X-3203338Y3453528D1*
X-2965213Y2359663D2*
Y2315976D1*
X-2970155Y2301376D1*
X-2974984Y2296434D1*
X-2984643Y2291605D1*
X-2994413D1*
X-3004072Y2296434D1*
X-3009013Y2301376D1*
X-3013843Y2315976D1*
Y2359663D1*
X-2911755D1*
X-2965213Y2325634D2*
X-2911755Y2291605D1*
X-2994301Y2261605D2*
X-2999243Y2251834D1*
X-3013730Y2237234D1*
X-2911755D1*
X-2994301Y2207234D2*
X-2999243Y2197464D1*
X-3013731Y2182864D1*
X-2911755D1*
X-1513870Y2161104D2*
X-1557558D1*
X-1572158Y2166045D1*
X-1577099Y2170874D1*
X-1581929Y2180533D1*
Y2190304D1*
X-1577099Y2199962D1*
X-1572158Y2204904D1*
X-1557558Y2209733D1*
X-1513870D1*
Y2107645D1*
X-1547899Y2161104D2*
X-1581929Y2107645D1*
X-1611929Y2190191D2*
X-1621699Y2195133D1*
X-1636299Y2209621D1*
Y2107645D1*
X-1724587Y2195133D2*
X-1719758Y2204791D1*
X-1705158Y2209621D1*
X-1695499D1*
X-1680899Y2204791D1*
X-1671129Y2190191D1*
X-1666299Y2165933D1*
Y2141674D1*
X-1671129Y2122245D1*
X-1680899Y2112474D1*
X-1695499Y2107645D1*
X-1700329D1*
X-1714816Y2112474D1*
X-1724587Y2122245D1*
X-1729416Y2136845D1*
Y2141674D1*
X-1724587Y2156274D1*
X-1714816Y2165933D1*
X-1700329Y2170762D1*
X-1695499D1*
X-1680899Y2165933D1*
X-1671129Y2156274D1*
X-1666299Y2141674D1*
X-2580153Y3884547D2*
Y3840860D1*
X-2585095Y3826260D1*
X-2589924Y3821318D1*
X-2599583Y3816489D1*
X-2609353D1*
X-2619012Y3821318D1*
X-2623953Y3826260D1*
X-2628783Y3840860D1*
Y3884547D1*
X-2526695D1*
X-2580153Y3850518D2*
X-2526695Y3816489D1*
X-2609241Y3786489D2*
X-2614183Y3776718D1*
X-2628670Y3762118D1*
X-2526695D1*
Y3712689D2*
X-2628671Y3664060D1*
X-2628670Y3732118D1*
X-2022276Y3749354D2*
X-2065963D1*
X-2080563Y3754295D1*
X-2085505Y3759124D1*
X-2090334Y3768783D1*
Y3778554D1*
X-2085505Y3788212D1*
X-2080563Y3793154D1*
X-2065963Y3797983D1*
X-2022276D1*
Y3695895D1*
X-2056305Y3749354D2*
X-2090334Y3695895D1*
X-2120334Y3778441D2*
X-2130105Y3783383D1*
X-2144705Y3797871D1*
Y3695895D1*
X-2198963Y3797871D2*
X-2184476Y3793041D1*
X-2179534Y3783383D1*
Y3773612D1*
X-2184476Y3763954D1*
X-2194134Y3759012D1*
X-2213563Y3754183D1*
X-2228163Y3749354D1*
X-2237822Y3739583D1*
X-2242651Y3729924D1*
Y3715324D1*
X-2237822Y3705666D1*
X-2232993Y3700724D1*
X-2218393Y3695895D1*
X-2198963D1*
X-2184476Y3700724D1*
X-2179534Y3705666D1*
X-2174705Y3715324D1*
Y3729924D1*
X-2179534Y3739583D1*
X-2189305Y3749354D1*
X-2203793Y3754183D1*
X-2223222Y3759012D1*
X-2232993Y3763954D1*
X-2237822Y3773612D1*
Y3783383D1*
X-2232993Y3793041D1*
X-2218393Y3797871D1*
X-2198963D1*
X-2486592Y1012438D2*
X-2481763Y1022096D1*
X-2471992Y1031867D1*
X-2462334Y1036696D1*
X-2442904D1*
X-2433134Y1031867D1*
X-2423475Y1022096D1*
X-2418534Y1012438D1*
X-2413704Y997838D1*
Y973467D1*
X-2418534Y958979D1*
X-2423475Y949208D1*
X-2433134Y939550D1*
X-2442904Y934608D1*
X-2462334D1*
X-2471992Y939550D1*
X-2481763Y949208D1*
X-2486592Y958979D1*
Y973467D1*
X-2462334D1*
X-2584651Y1036696D2*
Y934608D1*
X-2516592Y1036696D1*
Y934608D1*
X-2614651Y1036696D2*
Y934608D1*
X-2648680D1*
X-2663280Y939550D1*
X-2673051Y949208D1*
X-2677880Y958979D1*
X-2682709Y973467D1*
Y997838D1*
X-2677880Y1012438D1*
X-2673051Y1022096D1*
X-2663280Y1031867D1*
X-2648680Y1036696D1*
X-2614651D1*
X-3456891Y2627727D2*
X-3510237D1*
X-3481149Y2588869D1*
X-3495749D1*
X-3505407Y2584039D1*
X-3510237Y2579210D1*
X-3515178Y2564610D1*
Y2554952D1*
X-3510237Y2540352D1*
X-3500578Y2530581D1*
X-3485978Y2525752D1*
X-3471378D1*
X-3456891Y2530581D1*
X-3452061Y2535523D1*
X-3447120Y2545181D1*
X-3545178Y2627839D2*
X-3584037Y2525752D1*
X-3622895Y2627839D1*
X-3662666Y2627727D2*
X-3716012D1*
X-3686924Y2588869D1*
X-3701524D1*
X-3711183Y2584039D1*
X-3716012Y2579210D1*
X-3720954Y2564610D1*
Y2554952D1*
X-3716012Y2540352D1*
X-3706354Y2530581D1*
X-3691754Y2525752D1*
X-3677154D1*
X-3662666Y2530581D1*
X-3657837Y2535523D1*
X-3652895Y2545181D1*
X-2523180Y1618387D2*
X-2474663D1*
X-2469834Y1574699D1*
X-2474663Y1579529D1*
X-2489263Y1584470D1*
X-2503751D1*
X-2518351Y1579529D1*
X-2528122Y1569870D1*
X-2532951Y1555270D1*
Y1545612D1*
X-2528122Y1531012D1*
X-2518351Y1521241D1*
X-2503751Y1516412D1*
X-2489263D1*
X-2474663Y1521241D1*
X-2469834Y1526183D1*
X-2464892Y1535841D1*
X-2562951Y1618499D2*
X-2601809Y1516412D1*
X-2640668Y1618499D1*
X-2985922Y3959114D2*
X-2981093Y3968773D1*
X-2971322Y3978544D1*
X-2961664Y3983373D1*
X-2942235D1*
X-2932464Y3978544D1*
X-2922805Y3968773D1*
X-2917864Y3959114D1*
X-2913035Y3944514D1*
Y3920144D1*
X-2917864Y3905656D1*
X-2922805Y3895885D1*
X-2932464Y3886227D1*
X-2942235Y3881285D1*
X-2961664D1*
X-2971322Y3886227D1*
X-2981093Y3895885D1*
X-2985922Y3905656D1*
X-3093752Y3881285D2*
X-3054781Y3983373D1*
X-3015922Y3881285D1*
X-3030522Y3915314D2*
X-3079152D1*
X-3191810Y3983373D2*
Y3881285D1*
X-3123752Y3983373D1*
Y3881285D1*
X-3221810Y3864439D2*
X-3314127D1*
X-3344127Y3983373D2*
Y3881285D1*
X-3412185Y3983373D2*
Y3881285D1*
X-3344127Y3934744D2*
X-3412185D1*
X-2995118Y4162194D2*
X-2990288Y4171853D1*
X-2980518Y4181624D1*
X-2970859Y4186453D1*
X-2951430D1*
X-2941659Y4181624D1*
X-2932001Y4171853D1*
X-2927059Y4162194D1*
X-2922230Y4147594D1*
Y4123224D1*
X-2927059Y4108736D1*
X-2932001Y4098965D1*
X-2941659Y4089307D1*
X-2951430Y4084365D1*
X-2970859D1*
X-2980518Y4089307D1*
X-2990288Y4098965D1*
X-2995118Y4108736D1*
X-3102947Y4084365D2*
X-3063976Y4186453D1*
X-3025118Y4084365D1*
X-3039718Y4118394D2*
X-3088347D1*
X-3201005Y4186453D2*
Y4084365D1*
X-3132947Y4186453D1*
Y4084365D1*
X-3231005Y4067519D2*
X-3323322D1*
X-3353322Y4186453D2*
Y4084365D1*
X-3411610D1*
X-210626Y4430396D2*
X-137738D1*
X-123138Y4425567D1*
X-113480Y4415796D1*
X-108538Y4401196D1*
Y4391537D1*
X-113480Y4376937D1*
X-123138Y4367167D1*
X-137738Y4362337D1*
X-210626D1*
X-108538Y4254508D2*
X-210626Y4293479D1*
X-108538Y4332337D1*
X-142568Y4317737D2*
Y4269108D1*
X-161997Y4224508D2*
Y4180821D1*
X-166938Y4166221D1*
X-171768Y4161279D1*
X-181426Y4156450D1*
X-191197D1*
X-200855Y4161279D1*
X-205797Y4166221D1*
X-210626Y4180821D1*
Y4224508D1*
X-108538D1*
X-161997Y4190479D2*
X-108538Y4156450D1*
X-210626Y4092421D2*
X-108538D1*
X-210626Y4126450D2*
Y4058391D1*
X-91692Y4028391D2*
Y3936074D1*
X-210626Y3872045D2*
X-108538D1*
X-210626Y3906074D2*
Y3838016D1*
Y3808016D2*
X-108538Y3739958D1*
X-210626D2*
X-108538Y3808016D1*
X-17973Y4438123D2*
X54915D1*
X69515Y4433293D1*
X79173Y4423523D1*
X84115Y4408923D1*
Y4399264D1*
X79173Y4384664D1*
X69515Y4374893D1*
X54915Y4370064D1*
X-17973D1*
X84115Y4262235D2*
X-17973Y4301206D1*
X84115Y4340064D1*
X50086Y4325464D2*
Y4276835D1*
X30656Y4232235D2*
Y4188547D1*
X25715Y4173947D1*
X20886Y4169006D1*
X11227Y4164176D1*
X1456D1*
X-8202Y4169006D1*
X-13143Y4173947D1*
X-17973Y4188547D1*
Y4232235D1*
X84115D1*
X30656Y4198206D2*
X84115Y4164176D1*
X-17973Y4100147D2*
X84115D1*
X-17973Y4134176D2*
Y4066118D1*
X100961Y4036118D2*
Y3943801D1*
X30657Y3913801D2*
Y3870113D1*
X25715Y3855513D1*
X20886Y3850572D1*
X11227Y3845743D1*
X1457D1*
X-8202Y3850572D1*
X-13143Y3855514D1*
X-17973Y3870114D1*
Y3913801D1*
X84115D1*
X30657Y3879772D2*
X84115Y3845743D1*
X-17973Y3815743D2*
X84115Y3747684D1*
X-17973D2*
X84115Y3815743D1*
X207251Y4527482D2*
X280138D1*
X294738Y4522653D1*
X304397Y4512882D1*
X309338Y4498282D1*
Y4488623D1*
X304397Y4474023D1*
X294738Y4464253D1*
X280138Y4459423D1*
X207251D1*
X309338Y4351594D2*
X207251Y4390565D1*
X309338Y4429423D1*
X275309Y4414823D2*
Y4366194D1*
X255880Y4321594D2*
Y4277906D1*
X250938Y4263306D1*
X246109Y4258365D1*
X236451Y4253536D1*
X226680D1*
X217021Y4258365D1*
X212080Y4263306D1*
X207251Y4277906D1*
Y4321594D1*
X309338D1*
X255880Y4287565D2*
X309338Y4253536D1*
X207251Y4189506D2*
X309338D1*
X207251Y4223536D2*
Y4155477D1*
X326184Y4125477D2*
Y4033160D1*
X255880Y4003160D2*
Y3959473D1*
X250938Y3944873D1*
X246109Y3939931D1*
X236451Y3935102D1*
X226680D1*
X217021Y3939931D1*
X212080Y3944873D1*
X207251Y3959473D1*
Y4003160D1*
X309338D1*
X255880Y3969131D2*
X309338Y3935102D1*
X207251Y3871073D2*
X309338D1*
X207251Y3905102D2*
Y3837044D1*
X221851Y3738985D2*
X212080Y3748644D1*
X207251Y3763244D1*
Y3782673D1*
X212080Y3797273D1*
X221851Y3807044D1*
X231509D1*
X241280Y3802102D1*
X246109Y3797273D1*
X250938Y3787614D1*
X260709Y3758414D1*
X265538Y3748644D1*
X270480Y3743814D1*
X280138Y3738985D1*
X294738D1*
X304397Y3748644D1*
X309338Y3763244D1*
Y3782673D1*
X304397Y3797273D1*
X294738Y3807043D1*
X-758589Y4460228D2*
X-656502D1*
X-734219Y4425287D2*
X-739048D1*
X-748819Y4420458D1*
X-753648Y4415628D1*
X-758477Y4405858D1*
Y4386428D1*
X-753648Y4376770D1*
X-748819Y4371941D1*
X-739048Y4366999D1*
X-729389D1*
X-719619Y4371941D1*
X-705131Y4381599D1*
X-656502Y4430228D1*
Y4362170D1*
X-734331Y4259282D2*
X-743989Y4264112D1*
X-753760Y4273882D1*
X-758589Y4283541D1*
Y4302970D1*
X-753760Y4312741D1*
X-743989Y4322399D1*
X-734331Y4327341D1*
X-719731Y4332170D1*
X-695360D1*
X-680873Y4327341D1*
X-671102Y4322399D1*
X-661443Y4312741D1*
X-656502Y4302970D1*
Y4283541D1*
X-661443Y4273882D1*
X-671102Y4264112D1*
X-680873Y4259282D1*
X-639656Y4229282D2*
Y4136965D1*
X-743989Y4038907D2*
X-753760Y4048565D1*
X-758589Y4063165D1*
Y4082595D1*
X-753760Y4097195D1*
X-743989Y4106965D1*
X-734331D1*
X-724560Y4102024D1*
X-719731Y4097195D1*
X-714902Y4087536D1*
X-705131Y4058336D1*
X-700302Y4048565D1*
X-695360Y4043736D1*
X-685702Y4038907D1*
X-671102D1*
X-661443Y4048565D1*
X-656502Y4063165D1*
Y4082595D1*
X-661443Y4097195D1*
X-671102Y4106965D1*
X-734331Y3936019D2*
X-743989Y3940849D1*
X-753760Y3950619D1*
X-758589Y3960278D1*
Y3979707D1*
X-753760Y3989478D1*
X-743989Y3999136D1*
X-734331Y4004078D1*
X-719731Y4008907D1*
X-695360D1*
X-680872Y4004078D1*
X-671102Y3999136D1*
X-661443Y3989478D1*
X-656502Y3979707D1*
Y3960278D1*
X-661443Y3950619D1*
X-671102Y3940849D1*
X-680872Y3936019D1*
X-758589Y3906020D2*
X-656502Y3906019D1*
Y3847732D1*
X-1228255Y4409026D2*
Y4306938D1*
X-1263197Y4384655D2*
Y4389485D1*
X-1268026Y4399255D1*
X-1272855Y4404085D1*
X-1282626Y4408914D1*
X-1302055D1*
X-1311714Y4404085D1*
X-1316543Y4399255D1*
X-1321485Y4389485D1*
Y4379826D1*
X-1316543Y4370055D1*
X-1306885Y4355568D1*
X-1258255Y4306938D1*
X-1326314D1*
X-1429202Y4384768D2*
X-1424372Y4394426D1*
X-1414602Y4404197D1*
X-1404943Y4409026D1*
X-1385514D1*
X-1375743Y4404197D1*
X-1366085Y4394426D1*
X-1361143Y4384768D1*
X-1356314Y4370168D1*
Y4345797D1*
X-1361143Y4331309D1*
X-1366085Y4321538D1*
X-1375743Y4311880D1*
X-1385514Y4306938D1*
X-1404943D1*
X-1414602Y4311880D1*
X-1424372Y4321538D1*
X-1429202Y4331309D1*
X-1459202Y4290092D2*
X-1551518D1*
X-1649577Y4394426D2*
X-1639918Y4404197D1*
X-1625318Y4409026D1*
X-1605889D1*
X-1591289Y4404197D1*
X-1581518Y4394426D1*
Y4384768D1*
X-1586460Y4374997D1*
X-1591289Y4370168D1*
X-1600948Y4365338D1*
X-1630148Y4355568D1*
X-1639918Y4350738D1*
X-1644748Y4345797D1*
X-1649577Y4336138D1*
Y4321538D1*
X-1639918Y4311880D1*
X-1625318Y4306938D1*
X-1605889D1*
X-1591289Y4311880D1*
X-1581518Y4321538D1*
X-1679577Y4409026D2*
Y4306938D1*
X-1713606D1*
X-1728206Y4311880D1*
X-1737977Y4321538D1*
X-1742806Y4331309D1*
X-1747635Y4345797D1*
Y4370168D1*
X-1742806Y4384768D1*
X-1737977Y4394426D1*
X-1728206Y4404197D1*
X-1713606Y4409026D1*
X-1679577D1*
X-1855465Y4306938D2*
X-1816494Y4409026D1*
X-1777635Y4306938D1*
X-1792235Y4340968D2*
X-1840865D1*
X-94517Y1386006D2*
D97*
Y1488093D1*
X-55659Y1386006D1*
X-16800Y1488093D1*
Y1386006D1*
X-184178Y1454064D2*
Y1386006D1*
Y1439464D2*
X-174519Y1449235D1*
X-164748Y1454064D1*
X-150261D1*
X-140490Y1449235D1*
X-130831Y1439464D1*
X-125890Y1424864D1*
Y1415206D1*
X-130831Y1400606D1*
X-140490Y1390947D1*
X-150261Y1386006D1*
X-164748D1*
X-174519Y1390947D1*
X-184178Y1400606D1*
X-215550Y1454064D2*
Y1386006D1*
Y1424864D2*
X-220492Y1439464D1*
X-230150Y1449235D1*
X-239921Y1454064D1*
X-254521D1*
X-339352Y1439464D2*
X-334523Y1449235D1*
X-319923Y1454064D1*
X-305323D1*
X-290723Y1449235D1*
X-285893Y1439464D1*
X-290723Y1429806D1*
X-300493Y1424864D1*
X-324752Y1420035D1*
X-334523Y1415206D1*
X-339352Y1405435D1*
Y1400606D1*
X-334523Y1390947D1*
X-319923Y1386006D1*
X-305323D1*
X-290723Y1390947D1*
X-285893Y1400606D1*
X-469482Y1439464D2*
X-513169D1*
X-527769Y1444406D1*
X-532711Y1449235D1*
X-537540Y1458893D1*
Y1468664D1*
X-532711Y1478323D1*
X-527769Y1483264D1*
X-513169Y1488093D1*
X-469482D1*
Y1386006D1*
X-503511Y1439464D2*
X-537540Y1386006D1*
X-593171Y1454064D2*
X-583513Y1449235D1*
X-573742Y1439464D1*
X-568913Y1424864D1*
Y1415206D1*
X-573742Y1400606D1*
X-583513Y1390947D1*
X-593171Y1386006D1*
X-607771D1*
X-617542Y1390947D1*
X-627200Y1400606D1*
X-632142Y1415206D1*
Y1424864D1*
X-627200Y1439464D1*
X-617542Y1449235D1*
X-607771Y1454064D1*
X-593171D1*
X-663514D2*
X-692714Y1386006D1*
X-721802Y1454064D1*
X-753175Y1424864D2*
X-811462D1*
Y1434635D1*
X-806633Y1444406D1*
X-801804Y1449235D1*
X-792033Y1454064D1*
X-777433D1*
X-767775Y1449235D1*
X-758004Y1439464D1*
X-753175Y1424864D1*
Y1415206D1*
X-758004Y1400606D1*
X-767775Y1390947D1*
X-777433Y1386006D1*
X-792033D1*
X-801804Y1390947D1*
X-811462Y1400606D1*
X-842835Y1454064D2*
Y1386006D1*
Y1424864D2*
X-847776Y1439464D1*
X-857435Y1449235D1*
X-867206Y1454064D1*
X-881806D1*
X-1016877Y1463723D2*
Y1468552D1*
X-1021706Y1478323D1*
X-1026535Y1483152D1*
X-1036306Y1487981D1*
X-1055735D1*
X-1065394Y1483152D1*
X-1070223Y1478323D1*
X-1075165Y1468552D1*
Y1458893D1*
X-1070223Y1449123D1*
X-1060565Y1434635D1*
X-1011935Y1386006D1*
X-1079994D1*
X-1140566Y1487981D2*
X-1125966Y1483152D1*
X-1116196Y1468552D1*
X-1111366Y1444293D1*
Y1429693D1*
X-1116196Y1405435D1*
X-1125966Y1390835D1*
X-1140566Y1386006D1*
X-1150225D1*
X-1164825Y1390835D1*
X-1174483Y1405435D1*
X-1179425Y1429693D1*
Y1444293D1*
X-1174483Y1468552D1*
X-1164825Y1483152D1*
X-1150225Y1487981D1*
X-1140566D1*
X-1174483Y1468552D2*
X-1116196Y1405435D1*
X-1210797Y1468552D2*
X-1220568Y1473493D1*
X-1235168Y1487981D1*
Y1386006D1*
X-1290799Y1487981D2*
X-1276311Y1483152D1*
X-1271370Y1473493D1*
Y1463723D1*
X-1276311Y1454064D1*
X-1285970Y1449123D1*
X-1305399Y1444293D1*
X-1319999Y1439464D1*
X-1329658Y1429693D1*
X-1334487Y1420035D1*
Y1405435D1*
X-1329658Y1395776D1*
X-1324828Y1390835D1*
X-1310228Y1386006D1*
X-1290799D1*
X-1276311Y1390835D1*
X-1271370Y1395776D1*
X-1266541Y1405435D1*
Y1420035D1*
X-1271370Y1429693D1*
X-1281141Y1439464D1*
X-1295628Y1444293D1*
X-1315058Y1449123D1*
X-1324828Y1454064D1*
X-1329658Y1463723D1*
Y1473493D1*
X-1324828Y1483152D1*
X-1310228Y1487981D1*
X-1290799D1*
X-76401Y1293750D2*
X-13284D1*
Y1191662D1*
X-76401D1*
X-13284Y1245121D2*
X-52142D1*
X-107773Y1259721D2*
Y1191662D1*
Y1240291D2*
X-122373Y1254891D1*
X-132144Y1259721D1*
X-146632D1*
X-156402Y1254891D1*
X-161232Y1240291D1*
Y1191662D1*
X-250892Y1293750D2*
Y1191662D1*
Y1245121D2*
X-241233Y1254891D1*
X-231463Y1259721D1*
X-216863D1*
X-207204Y1254891D1*
X-197433Y1245121D1*
X-192604Y1230521D1*
Y1220862D1*
X-197433Y1206262D1*
X-207204Y1196604D1*
X-216863Y1191662D1*
X-231463D1*
X-241233Y1196604D1*
X-250892Y1206262D1*
X-381022Y1230521D2*
X-439309D1*
Y1240291D1*
X-434480Y1250062D1*
X-429651Y1254891D1*
X-419880Y1259721D1*
X-405280D1*
X-395622Y1254891D1*
X-385851Y1245121D1*
X-381022Y1230521D1*
Y1220862D1*
X-385851Y1206262D1*
X-395622Y1196604D1*
X-405280Y1191662D1*
X-419880D1*
X-429651Y1196604D1*
X-439309Y1206262D1*
X-509540Y1293750D2*
X-499882D1*
X-490111Y1288921D1*
X-485282Y1274321D1*
Y1191662D1*
X-470682Y1259721D2*
X-504711D1*
X-579771Y1293750D2*
X-570113D1*
X-560342Y1288921D1*
X-555513Y1274321D1*
Y1191662D1*
X-540913Y1259721D2*
X-574942D1*
X-611144Y1230521D2*
X-669432D1*
Y1240291D1*
X-664602Y1250062D1*
X-659773Y1254891D1*
X-650002Y1259721D1*
X-635402D1*
X-625744Y1254891D1*
X-615973Y1245121D1*
X-611144Y1230521D1*
Y1220862D1*
X-615973Y1206262D1*
X-625744Y1196604D1*
X-635402Y1191662D1*
X-650002D1*
X-659773Y1196604D1*
X-669432Y1206262D1*
X-759204Y1245121D2*
X-749433Y1254891D1*
X-739663Y1259721D1*
X-725175D1*
X-715404Y1254891D1*
X-705746Y1245121D1*
X-700804Y1230521D1*
Y1220862D1*
X-705746Y1206262D1*
X-715404Y1196604D1*
X-725175Y1191662D1*
X-739663D1*
X-749433Y1196604D1*
X-759204Y1206262D1*
X-805177Y1293750D2*
Y1211091D1*
X-810006Y1196604D1*
X-819777Y1191662D1*
X-829435D1*
X-790577Y1259721D2*
X-824606D1*
X-885066D2*
X-875408Y1254891D1*
X-865637Y1245121D1*
X-860808Y1230521D1*
Y1220862D1*
X-865637Y1206262D1*
X-875408Y1196604D1*
X-885066Y1191662D1*
X-899666D1*
X-909437Y1196604D1*
X-919095Y1206262D1*
X-924037Y1220862D1*
Y1230521D1*
X-919095Y1245121D1*
X-909437Y1254891D1*
X-899666Y1259721D1*
X-885066D1*
X-955409D2*
Y1191662D1*
Y1230521D2*
X-960351Y1245121D1*
X-970009Y1254891D1*
X-979780Y1259721D1*
X-994380D1*
X-31052Y1113283D2*
Y1011196D1*
X-65081D1*
X-79681Y1016137D1*
X-89452Y1025796D1*
X-94281Y1035566D1*
X-99110Y1050054D1*
Y1074425D1*
X-94281Y1089025D1*
X-89452Y1098683D1*
X-79681Y1108454D1*
X-65081Y1113283D1*
X-31052D1*
X-130483Y1050054D2*
X-188771D1*
Y1059825D1*
X-183941Y1069596D1*
X-179112Y1074425D1*
X-169341Y1079254D1*
X-154741D1*
X-145083Y1074425D1*
X-135312Y1064654D1*
X-130483Y1050054D1*
Y1040396D1*
X-135312Y1025796D1*
X-145083Y1016137D1*
X-154741Y1011196D1*
X-169341D1*
X-179112Y1016137D1*
X-188771Y1025796D1*
X-273602Y1064654D2*
X-268772Y1074425D1*
X-254172Y1079254D1*
X-239572D1*
X-224972Y1074425D1*
X-220143Y1064654D1*
X-224972Y1054996D1*
X-234743Y1050054D1*
X-259002Y1045225D1*
X-268772Y1040396D1*
X-273602Y1030625D1*
Y1025796D1*
X-268772Y1016137D1*
X-254172Y1011196D1*
X-239572D1*
X-224972Y1016137D1*
X-220143Y1025796D1*
X-304974Y1113283D2*
X-309803Y1108454D1*
X-314745Y1113283D1*
X-309803Y1118225D1*
X-304974Y1113283D1*
X-309803Y1079254D2*
Y1011196D1*
X-404405Y1074425D2*
Y996596D1*
X-399576Y982108D1*
X-394747Y977166D1*
X-384976Y972337D1*
X-370376D1*
X-360718Y977166D1*
X-404405Y1059825D2*
X-394747Y1069483D1*
X-384976Y1074425D1*
X-370376D1*
X-360718Y1069483D1*
X-350947Y1059825D1*
X-346118Y1045225D1*
Y1035454D1*
X-350947Y1020966D1*
X-360718Y1011196D1*
X-370376Y1006366D1*
X-384976D1*
X-394747Y1011196D1*
X-404405Y1020966D1*
X-435778Y1079254D2*
Y1011196D1*
Y1059825D2*
X-450378Y1074425D1*
X-460149Y1079254D1*
X-474636D1*
X-484407Y1074425D1*
X-489236Y1059825D1*
Y1011196D1*
X-520609Y1050054D2*
X-578896D1*
Y1059825D1*
X-574067Y1069596D1*
X-569238Y1074425D1*
X-559467Y1079254D1*
X-544867D1*
X-535209Y1074425D1*
X-525438Y1064654D1*
X-520609Y1050054D1*
Y1040396D1*
X-525438Y1025796D1*
X-535209Y1016137D1*
X-544867Y1011196D1*
X-559467D1*
X-569238Y1016137D1*
X-578896Y1025796D1*
X-668557Y1113283D2*
Y1011196D1*
Y1064654D2*
X-658898Y1074425D1*
X-649127Y1079254D1*
X-634527D1*
X-624869Y1074425D1*
X-615098Y1064654D1*
X-610269Y1050054D1*
Y1040396D1*
X-615098Y1025796D1*
X-624869Y1016137D1*
X-634527Y1011196D1*
X-649127D1*
X-658898Y1016137D1*
X-668557Y1025796D1*
X-798686Y1113283D2*
Y1011196D1*
Y1064654D2*
X-808457Y1074425D1*
X-818116Y1079254D1*
X-832716D1*
X-842374Y1074425D1*
X-852145Y1064654D1*
X-856974Y1050054D1*
Y1040396D1*
X-852145Y1025796D1*
X-842374Y1016137D1*
X-832716Y1011196D1*
X-818116D1*
X-808457Y1016137D1*
X-798686Y1025796D1*
X-893288Y1079254D2*
X-922376Y1011196D1*
X-912717Y991766D1*
X-902947Y981996D1*
X-893288Y977166D1*
X-888347D1*
X-951576Y1079254D2*
X-922376Y1011196D1*
X-1144823Y1113283D2*
X-1081706D1*
Y1011196D1*
X-1144823D1*
X-1081706Y1064654D2*
X-1120564D1*
X-1176195Y1113283D2*
Y1011196D1*
X-1219995D1*
X-1234595Y1016137D1*
X-1239424Y1020966D1*
X-1244254Y1030625D1*
Y1045225D1*
X-1239424Y1054996D1*
X-1234595Y1059825D1*
X-1219995Y1064654D1*
X-1234595Y1069596D1*
X-1239424Y1074425D1*
X-1244254Y1084083D1*
Y1093854D1*
X-1239424Y1103513D1*
X-1234595Y1108454D1*
X-1219995Y1113283D1*
X-1176195D1*
Y1064654D2*
X-1219995D1*
M02*
